<svg xmlns="http://www.w3.org/2000/svg" width="89" height="73" viewBox="0 0 89 73">
<g>
<path d="M 57.80 62.94 C45.37,69.15 30.33,66.05 21.20,55.38 C10.76,43.18 11.48,27.38 23.02,15.82 C30.10,8.74 36.66,6.43 47.21,7.31 C59.25,8.32 67.89,14.76 72.02,25.79 C77.43,40.25 71.34,56.18 57.80,62.94 ZM 34.55 49.08 C38.71,55.67 40.03,54.76 45.48,41.50 C47.52,36.55 49.31,32.37 49.47,32.20 C49.96,31.69 59.00,36.36 59.00,37.12 C59.00,37.52 57.09,38.90 54.76,40.19 C49.90,42.87 48.50,46.00 52.18,46.00 C55.70,45.99 65.45,39.76 65.81,37.28 C66.05,35.60 64.86,34.51 59.89,31.86 C54.89,29.20 53.36,27.79 52.18,24.77 C51.08,21.98 50.12,21.00 48.47,21.00 C45.57,21.00 44.86,22.04 41.65,31.00 C39.27,37.62 38.44,40.13 36.95,40.62 C36.05,40.91 34.91,40.48 33.05,39.76 C32.90,39.71 32.75,39.65 32.59,39.59 C30.06,38.62 28.00,37.49 28.00,37.06 C28.00,36.63 30.50,34.62 33.57,32.59 C38.65,29.21 39.92,27.14 37.41,26.30 C36.88,26.13 33.31,27.91 29.48,30.26 C20.21,35.95 19.70,38.43 26.99,42.40 C30.08,44.08 33.05,46.71 34.55,49.08 Z" fill="rgb(27,37,61)"/>
<path d="M 34.55 49.08 C33.05,46.71 30.08,44.08 26.99,42.40 C19.70,38.43 20.21,35.95 29.48,30.26 C33.31,27.91 36.88,26.13 37.41,26.30 C39.92,27.14 38.65,29.21 33.57,32.59 C30.50,34.62 28.00,36.63 28.00,37.06 C28.00,37.49 30.06,38.62 32.59,39.59 C32.75,39.65 32.90,39.71 33.05,39.76 C34.91,40.48 36.05,40.91 36.95,40.62 C38.44,40.13 39.27,37.62 41.65,31.00 C44.86,22.04 45.57,21.00 48.47,21.00 C50.12,21.00 51.08,21.98 52.18,24.77 C53.36,27.79 54.89,29.20 59.89,31.86 C64.86,34.51 66.05,35.60 65.81,37.28 C65.45,39.76 55.70,45.99 52.18,46.00 C48.50,46.00 49.90,42.87 54.76,40.19 C57.09,38.90 59.00,37.52 59.00,37.12 C59.00,36.36 49.96,31.69 49.47,32.20 C49.31,32.37 47.52,36.55 45.48,41.50 C40.03,54.76 38.71,55.67 34.55,49.08 Z" fill="rgb(73,162,197)"/>
<path d="M 0.00 36.50 L 0.00 0.00 L 44.50 0.00 L 89.00 0.00 L 89.00 36.50 L 89.00 73.00 L 44.50 73.00 L 0.00 73.00 L 0.00 36.50 ZM 57.80 62.94 C71.34,56.18 77.43,40.25 72.02,25.79 C67.89,14.76 59.25,8.32 47.21,7.31 C36.66,6.43 30.10,8.74 23.02,15.82 C11.48,27.38 10.76,43.18 21.20,55.38 C30.33,66.05 45.37,69.15 57.80,62.94 Z" fill="rgb(27,37,61)"/>
</g>
</svg>